<?xml version="1.0" standalone="no"?>
<!DOCTYPE svg PUBLIC "-//W3C//DTD SVG 20010904//EN"
 "http://www.w3.org/TR/2001/REC-SVG-20010904/DTD/svg10.dtd">
<svg version="1.0" xmlns="http://www.w3.org/2000/svg"
 width="240.000000pt" height="240.000000pt" viewBox="0 0 240.000000 240.000000"
 preserveAspectRatio="xMidYMid meet">
<metadata>
Created by potrace 1.14, written by Peter Selinger 2001-2017
</metadata>
<g transform="translate(0.000000,240.000000) scale(0.100000,-0.100000)"
fill="#000000" stroke="none">
<path d="M0 1200 l0 -1200 1200 0 1200 0 0 1200 0 1200 -1200 0 -1200 0 0
-1200z m1394 945 c152 -31 318 -117 411 -211 73 -75 107 -146 113 -239 4 -66
2 -78 -24 -126 -24 -44 -38 -56 -83 -77 -45 -21 -64 -24 -121 -20 -124 9 -181
59 -318 276 -119 189 -178 235 -302 235 -79 0 -132 -24 -194 -89 -91 -95 -134
-247 -122 -435 16 -265 102 -476 253 -624 223 -218 536 -197 724 51 72 95 84
104 128 104 47 0 71 -26 71 -78 0 -72 -32 -190 -78 -282 -37 -76 -61 -110
-122 -170 -90 -90 -161 -130 -296 -167 -125 -33 -292 -38 -424 -10 -109 23
-266 98 -345 166 -124 106 -229 250 -290 396 -50 122 -65 191 -72 342 -7 161
8 285 49 403 39 111 60 150 123 235 147 197 331 306 563 335 90 12 263 4 356
-15z"/>
</g>
</svg>
